# xmcd
#
# Track frame offsets: 
#        150
#        10521
#        21081
#        35484
#        48011
#        60763
#        73329
#        83663
#        103484
#        113912
#        132197
#        146937
#
# Disc length: 2099 seconds
#
# Revision: 0
# Processed by: cddbd v1.5.2PL0 Copyright (c) Steve Scherf et al.
# Submitted via: ExactAudioCopy v0.95b4
#
DISCID=9d08310c
DTITLE=The East Coast Bluegrass Band - Life's Mysteries
DYEAR=1998
DGENRE=Bluegrass
TTITLE0=Heading Back To Old Tennessee
TTITLE1=Forgive And Forget
TTITLE2=Simon Crutchfield's Grave
TTITLE3=Stampede
TTITLE4=Going Across The Sea
TTITLE5=Angels Are Hard To Forget
TTITLE6=I'll Sail My Ship Alone
TTITLE7=I Thought I Heard You Calling My Name
TTITLE8=White Horse Breakdown
TTITLE9=Life's Mysteries
TTITLE10=You're Still To Blame
TTITLE11=Living Proof
EXTD=
EXTT0=
EXTT1=
EXTT2=
EXTT3=
EXTT4=
EXTT5=
EXTT6=
EXTT7=
EXTT8=
EXTT9=
EXTT10=
EXTT11=
PLAYORDER=
